<svg width="450" height="450" viewBox="0 0 450 450" fill="none" xmlns="http://www.w3.org/2000/svg">
<circle cx="225" cy="225" r="225" fill="#2CAAE0"/>
<path d="M311.978 129.792C311.755 130.008 311.546 130.238 311.353 130.48L202.822 268.761L137.415 203.323C132.972 199.183 127.096 196.93 121.024 197.037C114.952 197.144 109.159 199.604 104.865 203.898C100.571 208.192 98.1108 213.985 98.0037 220.057C97.8965 226.129 100.15 232.006 104.29 236.448L186.978 319.167C189.205 321.391 191.858 323.143 194.777 324.319C197.697 325.495 200.823 326.071 203.97 326.013C207.117 325.954 210.22 325.263 213.093 323.979C215.967 322.696 218.553 320.847 220.697 318.542L345.447 162.605C349.694 158.146 352.017 152.195 351.912 146.038C351.807 139.881 349.283 134.012 344.886 129.701C340.489 125.39 334.571 122.983 328.413 123C322.255 123.017 316.351 125.457 311.978 129.792Z" fill="white"/>
</svg>
