<svg width="58" height="58" viewBox="0 0 58 58" fill="none" xmlns="http://www.w3.org/2000/svg">
<rect x="0.5" y="0.5" width="57" height="57" rx="14" fill="#F6F8FA" stroke="#CCCCCC"/>
<path d="M23.6923 25.5769C23.9473 25.5769 24.1919 25.6782 24.3722 25.8586C24.5525 26.0389 24.6539 26.2835 24.6539 26.5385V38.0769C24.6539 38.332 24.5525 38.5765 24.3722 38.7568C24.1919 38.9372 23.9473 39.0385 23.6923 39.0385C23.4373 39.0385 23.1927 38.9372 23.0124 38.7568C22.8321 38.5765 22.7308 38.332 22.7308 38.0769V26.5385C22.7308 26.2835 22.8321 26.0389 23.0124 25.8586C23.1927 25.6782 23.4373 25.5769 23.6923 25.5769V25.5769ZM28.5 25.5769C28.755 25.5769 28.9996 25.6782 29.1799 25.8586C29.3602 26.0389 29.4615 26.2835 29.4615 26.5385V38.0769C29.4615 38.332 29.3602 38.5765 29.1799 38.7568C28.9996 38.9372 28.755 39.0385 28.5 39.0385C28.245 39.0385 28.0004 38.9372 27.8201 38.7568C27.6398 38.5765 27.5385 38.332 27.5385 38.0769V26.5385C27.5385 26.2835 27.6398 26.0389 27.8201 25.8586C28.0004 25.6782 28.245 25.5769 28.5 25.5769V25.5769ZM34.2692 26.5385C34.2692 26.2835 34.1679 26.0389 33.9876 25.8586C33.8073 25.6782 33.5627 25.5769 33.3077 25.5769C33.0527 25.5769 32.8081 25.6782 32.6278 25.8586C32.4475 26.0389 32.3462 26.2835 32.3462 26.5385V38.0769C32.3462 38.332 32.4475 38.5765 32.6278 38.7568C32.8081 38.9372 33.0527 39.0385 33.3077 39.0385C33.5627 39.0385 33.8073 38.9372 33.9876 38.7568C34.1679 38.5765 34.2692 38.332 34.2692 38.0769V26.5385Z" fill="black"/>
<path fill-rule="evenodd" clip-rule="evenodd" d="M41 20.7692C41 21.2793 40.7974 21.7684 40.4367 22.1291C40.0761 22.4897 39.587 22.6923 39.0769 22.6923H38.1154V40C38.1154 41.0201 37.7102 41.9983 36.9889 42.7196C36.2676 43.4409 35.2893 43.8462 34.2692 43.8462H22.7308C21.7107 43.8462 20.7324 43.4409 20.0111 42.7196C19.2898 41.9983 18.8846 41.0201 18.8846 40V22.6923H17.9231C17.413 22.6923 16.9239 22.4897 16.5633 22.1291C16.2026 21.7684 16 21.2793 16 20.7692V18.8462C16 18.3361 16.2026 17.847 16.5633 17.4863C16.9239 17.1257 17.413 16.9231 17.9231 16.9231H24.6538C24.6538 16.413 24.8565 15.9239 25.2171 15.5633C25.5777 15.2026 26.0669 15 26.5769 15H30.4231C30.9331 15 31.4222 15.2026 31.7829 15.5633C32.1435 15.9239 32.3462 16.413 32.3462 16.9231H39.0769C39.587 16.9231 40.0761 17.1257 40.4367 17.4863C40.7974 17.847 41 18.3361 41 18.8462V20.7692ZM21.0346 22.6923L20.8077 22.8058V40C20.8077 40.51 21.0103 40.9992 21.3709 41.3598C21.7316 41.7205 22.2207 41.9231 22.7308 41.9231H34.2692C34.7793 41.9231 35.2684 41.7205 35.6291 41.3598C35.9897 40.9992 36.1923 40.51 36.1923 40V22.8058L35.9654 22.6923H21.0346ZM17.9231 20.7692V18.8462H39.0769V20.7692H17.9231Z" fill="black"/>
</svg>
