<svg width="58" height="58" viewBox="0 0 58 58" fill="none" xmlns="http://www.w3.org/2000/svg">
<rect x="0.5" y="0.5" width="57" height="57" rx="14" fill="#F6F8FA" stroke="#CCCCCC"/>
<path d="M40.751 19.4584C40.9105 19.6183 41 19.835 41 20.0608C41 20.2867 40.9105 20.5034 40.751 20.6633L38.9709 22.4451L35.5574 19.0317L37.3375 17.2499C37.4976 17.0899 37.7146 17 37.9409 17C38.1671 17 38.3842 17.0899 38.5442 17.2499L40.751 19.4567V19.4584ZM37.7642 23.6501L34.3508 20.2366L22.7228 31.8663C22.6289 31.9602 22.5582 32.0748 22.5163 32.2008L21.1424 36.3209C21.1175 36.396 21.1139 36.4765 21.1322 36.5535C21.1504 36.6305 21.1897 36.701 21.2456 36.7569C21.3016 36.8129 21.372 36.8522 21.449 36.8704C21.526 36.8886 21.6066 36.8851 21.6817 36.8602L25.8017 35.4863C25.9276 35.4449 26.0422 35.3748 26.1363 35.2815L37.7642 23.6518V23.6501Z" fill="black"/>
<path fill-rule="evenodd" clip-rule="evenodd" d="M16 39.1882C16 39.8671 16.2697 40.5183 16.7498 40.9984C17.2299 41.4785 17.8811 41.7483 18.5601 41.7483H37.3341C38.0131 41.7483 38.6643 41.4785 39.1444 40.9984C39.6245 40.5183 39.8942 39.8671 39.8942 39.1882V28.9478C39.8942 28.7215 39.8043 28.5044 39.6443 28.3444C39.4842 28.1843 39.2672 28.0944 39.0409 28.0944C38.8145 28.0944 38.5975 28.1843 38.4374 28.3444C38.2774 28.5044 38.1875 28.7215 38.1875 28.9478V39.1882C38.1875 39.4145 38.0976 39.6315 37.9375 39.7916C37.7775 39.9516 37.5605 40.0415 37.3341 40.0415H18.5601C18.3338 40.0415 18.1167 39.9516 17.9567 39.7916C17.7966 39.6315 17.7067 39.4145 17.7067 39.1882V20.4141C17.7067 20.1878 17.7966 19.9707 17.9567 19.8107C18.1167 19.6507 18.3338 19.5608 18.5601 19.5608H29.6538C29.8802 19.5608 30.0972 19.4709 30.2573 19.3108C30.4173 19.1508 30.5072 18.9337 30.5072 18.7074C30.5072 18.4811 30.4173 18.264 30.2573 18.104C30.0972 17.9439 29.8802 17.854 29.6538 17.854H18.5601C17.8811 17.854 17.2299 18.1238 16.7498 18.6039C16.2697 19.084 16 19.7352 16 20.4141V39.1882Z" fill="black"/>
</svg>
