<svg width="450" height="450" viewBox="0 0 450 450" fill="none" xmlns="http://www.w3.org/2000/svg">
<circle cx="225" cy="225" r="225" fill="#F7931F"/>
<path d="M270.664 130.792C270.441 131.008 270.232 131.238 270.039 131.48L161.508 269.761C163.429 267.313 148.665 284.009 145.664 287.011C124.143 308.531 159.959 340.424 179.383 319.542L304.133 163.605C308.38 159.146 310.703 153.195 310.598 147.038C310.493 140.881 307.969 135.012 303.572 130.701C299.174 126.39 293.257 123.983 287.099 124C280.941 124.017 275.037 126.457 270.664 130.792Z" fill="white"/>
<path d="M178.937 130.792C179.16 131.008 179.369 131.238 179.562 131.48L288.094 269.761C286.173 267.313 300.936 284.009 303.938 287.011C325.458 308.531 289.643 340.424 270.219 319.542L145.469 163.605C141.221 159.146 138.898 153.195 139.003 147.038C139.108 140.881 141.632 135.012 146.03 130.701C150.427 126.39 156.344 123.983 162.502 124C168.66 124.017 174.564 126.457 178.937 130.792Z" fill="white"/>
</svg>
