<svg width="159" height="23" viewBox="0 0 159 23" fill="none" xmlns="http://www.w3.org/2000/svg">
<path d="M53.8825 16V15.0156L58.3569 8.59801H53.8569V7.27273H60.3171V8.2571L55.8469 14.6747H60.3427V16H53.8825ZM69.2607 11.6364C69.2607 12.5767 69.0845 13.3821 68.7322 14.0526C68.3828 14.7202 67.9055 15.2315 67.3004 15.5866C66.6982 15.9418 66.0149 16.1193 65.2507 16.1193C64.4865 16.1193 63.8018 15.9418 63.1967 15.5866C62.5945 15.2287 62.1172 14.7159 61.7649 14.0483C61.4155 13.3778 61.2408 12.5739 61.2408 11.6364C61.2408 10.696 61.4155 9.89205 61.7649 9.22443C62.1172 8.55398 62.5945 8.04119 63.1967 7.68608C63.8018 7.33097 64.4865 7.15341 65.2507 7.15341C66.0149 7.15341 66.6982 7.33097 67.3004 7.68608C67.9055 8.04119 68.3828 8.55398 68.7322 9.22443C69.0845 9.89205 69.2607 10.696 69.2607 11.6364ZM67.6712 11.6364C67.6712 10.9744 67.5675 10.4162 67.3601 9.96165C67.1555 9.50426 66.8714 9.15909 66.5078 8.92614C66.1442 8.69034 65.7251 8.57244 65.2507 8.57244C64.7763 8.57244 64.3572 8.69034 63.9936 8.92614C63.63 9.15909 63.3445 9.50426 63.1371 9.96165C62.9325 10.4162 62.8303 10.9744 62.8303 11.6364C62.8303 12.2983 62.9325 12.858 63.1371 13.3153C63.3445 13.7699 63.63 14.1151 63.9936 14.3509C64.3572 14.5838 64.7763 14.7003 65.2507 14.7003C65.7251 14.7003 66.1442 14.5838 66.5078 14.3509C66.8714 14.1151 67.1555 13.7699 67.3601 13.3153C67.5675 12.858 67.6712 12.2983 67.6712 11.6364ZM77.9272 7.27273V16H76.521L72.4087 10.0554H72.3363V16H70.7553V7.27273H72.1701L76.2781 13.2216H76.3548V7.27273H77.9272ZM80.7706 16H79.0831L82.1555 7.27273H84.1072L87.1839 16H85.4964L83.1655 9.0625H83.0973L80.7706 16ZM80.826 12.5781H85.4283V13.848H80.826V12.5781ZM94.2674 16H91.31V7.27273H94.3271C95.1935 7.27273 95.9379 7.44744 96.56 7.79688C97.185 8.14347 97.6651 8.64205 98.0004 9.29261C98.3356 9.94318 98.5032 10.7216 98.5032 11.6278C98.5032 12.5369 98.3342 13.3182 97.9961 13.9716C97.6609 14.625 97.1765 15.1264 96.543 15.4759C95.9123 15.8253 95.1538 16 94.2674 16ZM92.891 14.6321H94.1907C94.7987 14.6321 95.3058 14.5213 95.712 14.2997C96.1183 14.0753 96.4237 13.7415 96.6282 13.2983C96.8327 12.8523 96.935 12.2955 96.935 11.6278C96.935 10.9602 96.8327 10.4062 96.6282 9.96591C96.4237 9.52273 96.1211 9.19176 95.7205 8.97301C95.3228 8.75142 94.8285 8.64062 94.2376 8.64062H92.891V14.6321ZM100.005 16V7.27273H105.681V8.59801H101.586V10.9673H105.387V12.2926H101.586V14.6747H105.716V16H100.005ZM107.294 16V7.27273H110.567C111.238 7.27273 111.8 7.39773 112.255 7.64773C112.712 7.89773 113.057 8.24148 113.29 8.67898C113.526 9.11364 113.644 9.60795 113.644 10.1619C113.644 10.7216 113.526 11.2187 113.29 11.6534C113.054 12.0881 112.706 12.4304 112.246 12.6804C111.786 12.9276 111.219 13.0511 110.546 13.0511H108.377V11.7514H110.333C110.725 11.7514 111.046 11.6832 111.296 11.5469C111.546 11.4105 111.73 11.223 111.85 10.9844C111.972 10.7457 112.033 10.4716 112.033 10.1619C112.033 9.85227 111.972 9.57955 111.85 9.34375C111.73 9.10795 111.544 8.92472 111.292 8.79403C111.042 8.66051 110.719 8.59375 110.324 8.59375H108.875V16H107.294ZM122.815 11.6364C122.815 12.5767 122.639 13.3821 122.287 14.0526C121.938 14.7202 121.46 15.2315 120.855 15.5866C120.253 15.9418 119.57 16.1193 118.805 16.1193C118.041 16.1193 117.357 15.9418 116.751 15.5866C116.149 15.2287 115.672 14.7159 115.32 14.0483C114.97 13.3778 114.795 12.5739 114.795 11.6364C114.795 10.696 114.97 9.89205 115.32 9.22443C115.672 8.55398 116.149 8.04119 116.751 7.68608C117.357 7.33097 118.041 7.15341 118.805 7.15341C119.57 7.15341 120.253 7.33097 120.855 7.68608C121.46 8.04119 121.938 8.55398 122.287 9.22443C122.639 9.89205 122.815 10.696 122.815 11.6364ZM121.226 11.6364C121.226 10.9744 121.122 10.4162 120.915 9.96165C120.71 9.50426 120.426 9.15909 120.062 8.92614C119.699 8.69034 119.28 8.57244 118.805 8.57244C118.331 8.57244 117.912 8.69034 117.548 8.92614C117.185 9.15909 116.899 9.50426 116.692 9.96165C116.487 10.4162 116.385 10.9744 116.385 11.6364C116.385 12.2983 116.487 12.858 116.692 13.3153C116.899 13.7699 117.185 14.1151 117.548 14.3509C117.912 14.5838 118.331 14.7003 118.805 14.7003C119.28 14.7003 119.699 14.5838 120.062 14.3509C120.426 14.1151 120.71 13.7699 120.915 13.3153C121.122 12.858 121.226 12.2983 121.226 11.6364ZM124.31 16V7.27273H127.583C128.253 7.27273 128.816 7.3892 129.27 7.62216C129.728 7.85511 130.073 8.18182 130.306 8.60227C130.542 9.01989 130.659 9.5071 130.659 10.0639C130.659 10.6236 130.54 11.1094 130.301 11.5213C130.066 11.9304 129.718 12.2472 129.257 12.4716C128.797 12.6932 128.232 12.804 127.561 12.804H125.23V11.4915H127.348C127.74 11.4915 128.061 11.4375 128.311 11.3295C128.561 11.2187 128.746 11.0582 128.865 10.848C128.988 10.6349 129.049 10.3736 129.049 10.0639C129.049 9.75426 128.988 9.49006 128.865 9.27131C128.743 9.04972 128.557 8.8821 128.307 8.76847C128.057 8.65199 127.735 8.59375 127.34 8.59375H125.891V16H124.31ZM128.819 12.0455L130.979 16H129.215L127.093 12.0455H128.819ZM131.731 8.59801V7.27273H138.694V8.59801H135.997V16H134.429V8.59801H131.731ZM141.618 7.27273V16H140.037V7.27273H141.618ZM144.497 7.27273L146.768 14.142H146.858L149.125 7.27273H150.864L147.787 16H145.835L142.763 7.27273H144.497ZM152.114 16H150.427L153.499 7.27273H155.451L158.528 16H156.84L154.509 9.0625H154.441L152.114 16ZM152.17 12.5781H156.772V13.848H152.17V12.5781Z" fill="white"/>
<path d="M8.128 18.368L11.136 14.496L13.664 11.232L19.232 4L22.336 0H17.312H0V4H14.24L11.168 7.968L8.64 11.232L3.136 18.368L0.064 22.368L0.0320001 22.4H5.088L5.12 22.368H22.432V18.368H8.128Z" fill="white"/>
<path d="M21.8031 0V22.4H33.0031C36.0751 22.4 38.8591 21.152 40.8751 19.104C41.0991 18.88 41.3231 18.656 41.5151 18.432C43.1791 16.48 44.1711 13.952 44.1711 11.2C44.1711 5.024 39.1471 0.0319996 32.9711 0.0319996L21.8031 0ZM21.8031 4.032H32.9711C36.9391 4.032 40.1711 7.264 40.1711 11.232C40.1711 15.2 36.9391 18.432 32.9711 18.432H21.8031V4.032Z" fill="white"/>
</svg>
